<svg width="22" height="24" viewBox="0 0 22 24" fill="none" xmlns="http://www.w3.org/2000/svg">
<path d="M10.8214 12.9319C10.8462 12.9319 10.8711 12.9319 10.9009 12.9319C10.9108 12.9319 10.9208 12.9319 10.9307 12.9319C10.9456 12.9319 10.9655 12.9319 10.9804 12.9319C12.4366 12.907 13.6145 12.3951 14.4843 11.416C16.3977 9.25906 16.0796 5.5614 16.0448 5.20853C15.9206 2.55954 14.6681 1.29219 13.6344 0.700766C12.864 0.258439 11.9645 0.0198799 10.9605 0H10.9258C10.9208 0 10.9108 0 10.9059 0H10.8761C10.3244 0 9.24094 0.0894595 8.20221 0.680886C7.15852 1.27231 5.88621 2.53966 5.76196 5.20853C5.72717 5.5614 5.40909 9.25906 7.32253 11.416C8.1873 12.3951 9.36519 12.907 10.8214 12.9319ZM7.08894 5.33278C7.08894 5.31787 7.09391 5.30296 7.09391 5.29302C7.25792 1.72955 9.78763 1.34686 10.8711 1.34686H10.891C10.9009 1.34686 10.9158 1.34686 10.9307 1.34686C12.2726 1.37668 14.5538 1.92338 14.7079 5.29302C14.7079 5.30793 14.7079 5.32284 14.7129 5.33278C14.7178 5.36757 15.0657 8.74715 13.4853 10.5264C12.8591 11.2321 12.0241 11.58 10.9258 11.59C10.9158 11.59 10.9108 11.59 10.9009 11.59C10.891 11.59 10.886 11.59 10.8761 11.59C9.78266 11.58 8.94274 11.2321 8.32149 10.5264C6.74601 8.75709 7.08397 5.3626 7.08894 5.33278Z" fill="#352542"/>
<path d="M21.1142 19.0648C21.1142 19.0599 21.1142 19.0549 21.1142 19.0499C21.1142 19.0102 21.1092 18.9704 21.1092 18.9257C21.0794 17.9416 21.0148 15.6405 18.8578 14.905C18.8429 14.9 18.823 14.895 18.8081 14.89C16.5667 14.3185 14.7029 13.0263 14.6831 13.0114C14.3799 12.7977 13.9624 12.8722 13.7487 13.1754C13.535 13.4786 13.6095 13.8961 13.9127 14.1098C13.9972 14.1694 15.9753 15.5461 18.4503 16.1822C19.6083 16.5948 19.7375 17.8323 19.7723 18.9654C19.7723 19.0102 19.7723 19.0499 19.7773 19.0897C19.7822 19.537 19.7524 20.2278 19.6729 20.6254C18.8678 21.0826 15.7118 22.6631 10.9108 22.6631C6.12973 22.6631 2.95392 21.0777 2.14382 20.6204C2.0643 20.2228 2.02951 19.532 2.03945 19.0847C2.03945 19.0449 2.04442 19.0052 2.04442 18.9605C2.07921 17.8273 2.20843 16.5898 3.36643 16.1773C5.84148 15.5411 7.81952 14.1595 7.90401 14.1048C8.20718 13.8911 8.28173 13.4736 8.06802 13.1704C7.85431 12.8673 7.43684 12.7927 7.13367 13.0064C7.11379 13.0213 5.25999 14.3135 3.00859 14.8851C2.98871 14.89 2.9738 14.895 2.95889 14.9C0.801924 15.6405 0.737314 17.9416 0.707495 18.9207C0.707495 18.9654 0.707494 19.0052 0.702525 19.045C0.702525 19.0499 0.702525 19.0549 0.702525 19.0599C0.697555 19.3183 0.692585 20.6453 0.955993 21.3113C1.00569 21.4405 1.09515 21.5498 1.21443 21.6244C1.36353 21.7238 4.93694 24 10.9158 24C16.8947 24 20.4681 21.7188 20.6172 21.6244C20.7315 21.5498 20.8259 21.4405 20.8756 21.3113C21.1241 20.6503 21.1192 19.3233 21.1142 19.0648Z" fill="#352542"/>
</svg>
