<svg width="20" height="20" viewBox="0 0 20 20" fill="none" xmlns="http://www.w3.org/2000/svg">
<path d="M15.7918 12.3892C15.3823 11.9628 14.8884 11.7349 14.365 11.7349C13.8458 11.7349 13.3477 11.9586 12.9214 12.385L11.5875 13.7146C11.4778 13.6555 11.368 13.6006 11.2625 13.5458C11.1105 13.4698 10.967 13.398 10.8446 13.3221C9.59513 12.5285 8.45964 11.4943 7.37059 10.1562C6.84295 9.48926 6.48837 8.92785 6.23088 8.358C6.57702 8.04141 6.89782 7.71216 7.21019 7.39558C7.32838 7.27739 7.44657 7.15497 7.56476 7.03678C8.4512 6.15034 8.4512 5.00219 7.56476 4.11576L6.41239 2.96338C6.28154 2.83253 6.14646 2.69745 6.01983 2.56238C5.76656 2.30067 5.50063 2.03051 5.22625 1.77725C4.8168 1.37202 4.32715 1.15674 3.81217 1.15674C3.29719 1.15674 2.7991 1.37202 2.37699 1.77725C2.37276 1.78147 2.37276 1.78147 2.36854 1.78569L0.933356 3.23354C0.393051 3.77384 0.0849076 4.43234 0.0173694 5.19637C-0.083938 6.42894 0.27908 7.57709 0.557675 8.32845C1.2415 10.1731 2.26301 11.8826 3.78685 13.7146C5.6357 15.9223 7.86024 17.6656 10.4014 18.894C11.3722 19.3541 12.6681 19.8986 14.116 19.9914C14.2046 19.9957 14.2975 19.9999 14.3819 19.9999C15.357 19.9999 16.1759 19.6495 16.8175 18.9531C16.8217 18.9446 16.8302 18.9404 16.8344 18.9319C17.0539 18.666 17.3071 18.4254 17.5731 18.1679C17.7546 17.9949 17.9403 17.8133 18.1218 17.6234C18.5397 17.1886 18.7592 16.6821 18.7592 16.1629C18.7592 15.6395 18.5355 15.1371 18.1092 14.715L15.7918 12.3892ZM17.3029 16.834C17.2987 16.834 17.2987 16.8383 17.3029 16.834C17.1383 17.0113 16.9695 17.1717 16.7879 17.349C16.5136 17.6107 16.235 17.8851 15.9733 18.1932C15.5469 18.6491 15.0446 18.8644 14.3861 18.8644C14.3228 18.8644 14.2553 18.8644 14.1919 18.8602C12.9383 18.78 11.7732 18.2903 10.8995 17.8724C8.5103 16.7158 6.41239 15.0738 4.66906 12.9928C3.22966 11.2579 2.26724 9.65389 1.62984 7.93166C1.23728 6.8806 1.09376 6.0617 1.15708 5.28923C1.19929 4.79536 1.38924 4.38591 1.73959 4.03555L3.179 2.59615C3.38584 2.40197 3.60534 2.29645 3.82061 2.29645C4.08655 2.29645 4.30182 2.45685 4.4369 2.59192C4.44112 2.59615 4.44534 2.60037 4.44956 2.60459C4.70705 2.84519 4.95188 3.09424 5.20937 3.36017C5.34022 3.49525 5.4753 3.63032 5.61038 3.76962L6.76275 4.92199C7.21019 5.36943 7.21019 5.7831 6.76275 6.23055C6.64033 6.35296 6.52214 6.47537 6.39973 6.59356C6.04515 6.95658 5.70746 7.29427 5.34022 7.62352C5.33178 7.63196 5.32334 7.63618 5.31912 7.64463C4.9561 8.00764 5.02364 8.36222 5.09962 8.60282C5.10384 8.61549 5.10806 8.62815 5.11228 8.64081C5.41198 9.36685 5.8341 10.0507 6.47571 10.8654L6.47993 10.8696C7.64497 12.3048 8.87332 13.4234 10.2283 14.2803C10.4014 14.39 10.5787 14.4786 10.7475 14.5631C10.8995 14.639 11.043 14.7108 11.1654 14.7868C11.1823 14.7952 11.1992 14.8079 11.216 14.8163C11.3596 14.8881 11.4946 14.9219 11.6339 14.9219C11.9843 14.9219 12.2038 14.7024 12.2756 14.6306L13.7192 13.187C13.8627 13.0435 14.0906 12.8704 14.3566 12.8704C14.6183 12.8704 14.8336 13.035 14.9644 13.1785C14.9686 13.1828 14.9686 13.1828 14.9729 13.187L17.2987 15.5128C17.7335 15.9434 17.7335 16.3866 17.3029 16.834Z" fill="#352542"/>
<path d="M10.7939 4.7574C11.8999 4.94313 12.9045 5.46656 13.7065 6.26857C14.5085 7.07059 15.0277 8.07522 15.2177 9.18116C15.2641 9.45975 15.5047 9.65392 15.7791 9.65392C15.8129 9.65392 15.8424 9.6497 15.8762 9.64548C16.1885 9.59483 16.3954 9.29935 16.3447 8.98698C16.1168 7.64888 15.4836 6.42897 14.517 5.46233C13.5503 4.49569 12.3304 3.86252 10.9923 3.63458C10.68 3.58393 10.3887 3.79076 10.3338 4.09891C10.279 4.40705 10.4816 4.70675 10.7939 4.7574Z" fill="#352542"/>
<path d="M19.9622 8.82242C19.5866 6.61899 18.5482 4.61395 16.9526 3.01836C15.357 1.42277 13.3519 0.384369 11.1485 0.00868772C10.8404 -0.0461871 10.5491 0.16487 10.4942 0.473013C10.4436 0.785377 10.6504 1.07664 10.9628 1.13151C12.9298 1.46498 14.7238 2.39785 16.1506 3.82037C17.5773 5.24712 18.5059 7.0411 18.8394 9.00815C18.8858 9.28675 19.1265 9.48092 19.4008 9.48092C19.4346 9.48092 19.4641 9.4767 19.4979 9.47248C19.8061 9.42604 20.0171 9.13056 19.9622 8.82242Z" fill="#352542"/>
</svg>
