<svg width="15" height="11" viewBox="0 0 15 11" fill="none" xmlns="http://www.w3.org/2000/svg">
<path d="M13.8578 0H0.876257C0.389448 0 0 0.389447 0 0.876256C0 1.36306 0.389448 1.75251 0.876257 1.75251H13.8578C14.3446 1.75251 14.7341 1.36306 14.7341 0.876256C14.7341 0.389447 14.3381 0 13.8578 0Z" fill="white"/>
<path d="M13.8578 4.23849H0.876257C0.389448 4.23849 0 4.62795 0 5.11476C0 5.60157 0.389448 5.99102 0.876257 5.99102H13.8578C14.3446 5.99102 14.7341 5.60157 14.7341 5.11476C14.7341 4.62795 14.3381 4.23849 13.8578 4.23849Z" fill="white"/>
<path d="M13.8578 8.47696H0.876257C0.389448 8.47696 0 8.86641 0 9.35322C0 9.84002 0.389448 10.2295 0.876257 10.2295H13.8578C14.3446 10.2295 14.7341 9.84002 14.7341 9.35322C14.7341 8.86641 14.3381 8.47696 13.8578 8.47696Z" fill="white"/>
</svg>
