<svg width="22" height="24" viewBox="0 0 22 24" fill="none" xmlns="http://www.w3.org/2000/svg">
<path d="M6.27003 15.8022H19.3143C20.7934 15.8022 22 14.5789 22 13.0794V7.51559C22 7.51066 22 7.50079 22 7.49586C22 7.48106 22 7.4712 22 7.4564C22 7.44653 22 7.43667 21.9951 7.4268C21.9951 7.41694 21.9903 7.40214 21.9903 7.39228C21.9903 7.38241 21.9854 7.37255 21.9854 7.36268C21.9805 7.35282 21.9805 7.34295 21.9757 7.32815C21.9708 7.31829 21.9708 7.30842 21.9659 7.29856C21.9611 7.28869 21.9611 7.27883 21.9562 7.26896C21.9513 7.2591 21.9465 7.24923 21.9416 7.23444C21.9368 7.22457 21.9319 7.21471 21.927 7.20977C21.9222 7.19991 21.9173 7.19004 21.9124 7.18018C21.9076 7.17031 21.9027 7.16538 21.8978 7.15552C21.893 7.14565 21.8832 7.13579 21.8784 7.12592C21.8735 7.11606 21.8686 7.11112 21.8589 7.10126C21.854 7.09139 21.8443 7.08646 21.8394 7.0766C21.8346 7.06673 21.8248 7.0618 21.82 7.05193C21.8151 7.04207 21.8054 7.03714 21.8005 7.0322C21.7908 7.02234 21.7859 7.01741 21.7762 7.00754C21.7665 7.00261 21.7616 6.99274 21.7519 6.98781C21.7421 6.98288 21.7324 6.97301 21.7227 6.96808C21.7129 6.96315 21.7081 6.95822 21.6983 6.95328C21.6886 6.94835 21.6789 6.94342 21.6692 6.93355C21.6594 6.92862 21.6497 6.92369 21.64 6.91876C21.6302 6.91382 21.6205 6.90889 21.6108 6.90396C21.601 6.89902 21.5913 6.89409 21.5816 6.88916C21.5718 6.88423 21.5621 6.88423 21.5524 6.8793C21.5427 6.87436 21.5281 6.86943 21.5183 6.86943C21.5086 6.86943 21.4989 6.8645 21.494 6.8645C21.4794 6.85957 21.4697 6.85957 21.4551 6.85957C21.4502 6.85957 21.4453 6.85463 21.4356 6.85463L4.90284 4.54129V2.20329C4.90284 2.17862 4.90284 2.15396 4.89798 2.13423C4.89798 2.1293 4.89798 2.12437 4.89311 2.1145C4.89311 2.0997 4.88825 2.08491 4.88825 2.07011C4.88338 2.05531 4.88338 2.04545 4.87852 2.03065C4.87852 2.02078 4.87365 2.01585 4.87365 2.00599C4.86879 1.99119 4.86392 1.97639 4.85905 1.96159C4.85905 1.95666 4.85419 1.9468 4.85419 1.94186C4.84932 1.92707 4.84446 1.9172 4.83473 1.9024C4.82986 1.89747 4.82986 1.88761 4.825 1.88267C4.82013 1.87281 4.81527 1.86294 4.80553 1.85308C4.80067 1.84321 4.7958 1.83828 4.79094 1.82842C4.78607 1.81855 4.78121 1.81362 4.77634 1.80375C4.77148 1.79389 4.76175 1.78402 4.75688 1.77416C4.75202 1.76923 4.74715 1.76429 4.74228 1.75936C4.73255 1.7495 4.72282 1.73963 4.71309 1.72977C4.70823 1.72483 4.70336 1.7199 4.69849 1.71497C4.68876 1.7051 4.67903 1.69524 4.66444 1.68537C4.65957 1.68044 4.64984 1.67551 4.64498 1.67058C4.63524 1.66071 4.62551 1.65578 4.61578 1.64591C4.60119 1.63605 4.58659 1.62618 4.57686 1.62125C4.57199 1.61632 4.56713 1.61632 4.56226 1.61139C4.5428 1.60152 4.51847 1.59166 4.49901 1.58179L0.913182 0.0527161C0.577467 -0.0903264 0.193097 0.0675136 0.0519994 0.407856C-0.0890984 0.748199 0.0665958 1.13787 0.402311 1.28091L3.58431 2.64228V5.66097V6.13942V9.8092V13.0893V17.2326C3.58431 18.6137 4.60605 19.7581 5.92459 19.9307C5.68618 20.3352 5.54508 20.8087 5.54508 21.3118C5.54508 22.7965 6.73711 24 8.19675 24C9.65638 24 10.8484 22.7915 10.8484 21.3118C10.8484 20.8185 10.717 20.35 10.4835 19.9554H16.3901C16.1566 20.3549 16.0252 20.8185 16.0252 21.3118C16.0252 22.7965 17.2173 24 18.6769 24C20.1365 24 21.3286 22.7915 21.3286 21.3118C21.3286 19.832 20.1365 18.6236 18.6769 18.6236H6.27003C5.51102 18.6236 4.89798 17.9971 4.89798 17.2326V15.4273C5.29694 15.6641 5.76889 15.8022 6.27003 15.8022ZM9.53961 21.3069C9.53961 22.0566 8.93629 22.6633 8.20161 22.6633C7.46693 22.6633 6.86362 22.0517 6.86362 21.3069C6.86362 20.562 7.46693 19.9504 8.20161 19.9504C8.93629 19.9504 9.53961 20.5571 9.53961 21.3069ZM20.0198 21.3069C20.0198 22.0566 19.4165 22.6633 18.6818 22.6633C17.9471 22.6633 17.3438 22.0517 17.3438 21.3069C17.3438 20.562 17.9471 19.9504 18.6818 19.9504C19.4165 19.9504 20.0198 20.5571 20.0198 21.3069ZM19.3143 14.4704H6.27003C5.51102 14.4704 4.89798 13.844 4.89798 13.0794V9.79934V6.12956V5.88293L20.6863 8.08776V13.0745C20.6863 13.8489 20.0684 14.4704 19.3143 14.4704Z" fill="#352542"/>
</svg>
