<svg width="84" height="84" viewBox="0 0 84 84" fill="none" xmlns="http://www.w3.org/2000/svg">
<path d="M42 0C18.8041 0 0 18.8041 0 42C0 65.1959 18.8041 84 42 84C65.1959 84 84 65.1959 84 42C83.9737 18.815 65.1851 0.02625 42 0ZM42 81.2C20.3504 81.2 2.8 63.6496 2.8 42C2.8 20.3504 20.3504 2.8 42 2.8C63.6496 2.8 81.2 20.3504 81.2 42C81.1753 63.6393 63.6393 81.1753 42 81.2Z" fill="#5CC142"/>
<path d="M64.302 16.7999C63.1766 16.7985 62.0762 17.1319 61.1408 17.7575L60.2 18.3847V16.7999C60.2 16.0268 59.5732 15.3999 58.8 15.3999H25.2C24.4268 15.3999 23.8 16.0268 23.8 16.7999V18.3847L22.8592 17.7575C20.241 16.0117 16.7032 16.7187 14.9573 19.3371C14.3332 20.273 14 21.3728 14 22.4979V34.9019C14.0038 38.0472 16.5527 40.5961 19.698 40.5999H24.6904C26.6602 46.636 31.6248 51.215 37.8 52.6917V65.7999H29.4C27.0804 65.7999 25.2 67.6803 25.2 69.9999V72.7999C25.2 73.573 25.8268 74.1999 26.6 74.1999H57.4C58.1731 74.1999 58.8 73.573 58.8 72.7999V69.9999C58.8 67.6803 56.9196 65.7999 54.6 65.7999H46.2V52.6917C52.3752 51.215 57.3398 46.636 59.3096 40.5999H64.302C67.4473 40.5961 69.9961 38.0472 70 34.9019V22.4979C69.9961 19.3526 67.4473 16.8038 64.302 16.7999ZM19.698 37.7999C18.0985 37.7976 16.8023 36.5014 16.8 34.9019V22.4979C16.7998 20.8974 18.0973 19.5997 19.6978 19.5997C20.2704 19.5997 20.8302 19.7693 21.3066 20.0871L23.8 21.7489V34.9999C23.8074 35.9379 23.887 36.874 24.038 37.7999H19.698ZM54.6 68.5999C55.3731 68.5999 56 69.2267 56 69.9999V71.3999H28V69.9999C28 69.2267 28.6269 68.5999 29.4 68.5999H54.6ZM40.6 65.7999V53.1999H43.4V65.7999H40.6ZM57.4 34.9999C57.4 43.5051 50.5052 50.3999 42 50.3999C33.4948 50.3999 26.6 43.5051 26.6 34.9999V18.1999H57.4V34.9999ZM67.2 34.9019C67.1977 36.5014 65.9015 37.7976 64.302 37.7999H59.962C60.113 36.874 60.1926 35.9379 60.2 34.9999V21.7489L62.6934 20.0871C64.0248 19.1986 65.8242 19.5577 66.7126 20.8891C67.0304 21.3655 67.2002 21.9253 67.2 22.4979V34.9019Z" fill="#5CC142"/>
<path d="M51.4038 29.9599C51.1373 29.6046 50.718 29.3967 50.274 29.3999H44.8896L43.2096 23.9693C42.9816 23.2304 42.1977 22.8166 41.4589 23.0446C41.0168 23.1811 40.6707 23.5272 40.5342 23.9693L38.8584 29.3999H33.474C32.7008 29.3945 32.0696 30.0168 32.0642 30.7901C32.061 31.2342 32.2689 31.6535 32.6242 31.9199L37.0398 35.2799L35.3458 40.7637C35.1178 41.5025 35.5318 42.2864 36.2707 42.5142C36.7029 42.6476 37.173 42.5639 37.5326 42.2897L41.8726 38.9731L46.2126 42.2897C46.8274 42.7587 47.7059 42.6404 48.1749 42.0256C48.4493 41.666 48.5329 41.1959 48.3994 40.7637L46.7096 35.2799L51.1238 31.9199C51.7424 31.456 51.8677 30.5785 51.4038 29.9599ZM43.7528 35.1791L44.443 37.4121L42.7308 36.1045C42.2291 35.7212 41.5329 35.7212 41.0312 36.1045L39.3218 37.4121L40.0106 35.1791C40.184 34.6186 39.9896 34.0094 39.5234 33.6531L37.6138 32.1999H39.8916C40.5036 32.2006 41.045 31.8037 41.2286 31.2199L41.874 29.1199L42.5194 31.2087C42.7031 31.793 43.2453 32.1899 43.8578 32.1887H46.1356L44.24 33.6531C43.7738 34.0094 43.5794 34.6186 43.7528 35.1791Z" fill="#5CC142"/>
</svg>
